<?xml version="1.0" encoding="UTF-8" standalone="no"?>
<!-- Created with Inkscape (http://www.inkscape.org/) -->

<svg
   width="90.621307mm"
   height="45.571175mm"
   viewBox="0 0 90.621307 45.571174"
   version="1.1"
   id="svg1"
   xmlns="http://www.w3.org/2000/svg"
   xmlns:svg="http://www.w3.org/2000/svg">
  <defs
     id="defs1" />
  <g
     id="layer1"
     transform="translate(-40.853296,-102.14781)"
     style="fill:#b7b7b7;fill-opacity:1">
    <path
       d="m 54.957935,137.49042 q -3.714581,0 -6.729313,-1.7227 -2.960897,-1.7227 -4.737435,-4.89894 -1.722704,-3.23007 -1.722704,-7.6445 0,-4.41443 1.722704,-7.59066 1.776538,-3.23007 4.737435,-4.95278 3.014732,-1.7227 6.729313,-1.7227 3.983753,0 7.106154,1.83037 3.176235,1.77654 4.952774,5.00661 1.830373,3.23007 1.830373,7.42916 0,4.19909 -1.830373,7.42916 -1.776539,3.23007 -4.952774,5.06044 -3.122401,1.77654 -7.106154,1.77654 z m -14.104639,10.22856 v -38.5455 h 2.584056 v 9.2057 l -0.430676,4.89894 0.538345,4.89894 v 19.54192 z m 13.943135,-12.65111 q 3.23007,0 5.814126,-1.45353 2.584056,-1.50737 4.037588,-4.19909 1.507366,-2.69173 1.507366,-6.19097 0,-3.55308 -1.507366,-6.19097 -1.453532,-2.69172 -4.037588,-4.14525 -2.584056,-1.50737 -5.814126,-1.50737 -3.23007,0 -5.814126,1.50737 -2.530221,1.45353 -4.037587,4.14525 -1.453531,2.63789 -1.453531,6.19097 0,3.49924 1.453531,6.19097 1.507366,2.69172 4.037587,4.19909 2.584056,1.45353 5.814126,1.45353 z"
       id="text4"
       style="font-weight:300;font-size:53.8345px;line-height:1.25;font-family:Montserrat;-inkscape-font-specification:'Montserrat, Light';fill:#b7b7b7;fill-opacity:1;stroke-width:0.264583"
       aria-label="p" />
    <path
       d="m 84.15923,109.00393 q 3.445408,0 5.975629,1.34586 2.584056,1.29203 3.983753,3.98376 1.453532,2.63789 1.453532,6.5678 v 16.41953 h -2.691725 v -16.20419 q 0,-4.73743 -2.422553,-7.21382 -2.368718,-2.47639 -6.675478,-2.47639 -3.283904,0 -5.706457,1.34587 -2.422552,1.34586 -3.71458,3.76841 -1.238194,2.42255 -1.238194,5.81413 v 14.96599 h -2.691724 v -28.10161 h 2.584055 v 7.806 l -0.376841,-0.86135 q 1.292028,-3.33774 4.252925,-5.22195 2.960898,-1.93804 7.267658,-1.93804 z"
       id="text5"
       style="font-weight:300;font-size:53.8345px;line-height:1.25;font-family:Montserrat;-inkscape-font-specification:'Montserrat, Light';fill:#b7b7b7;fill-opacity:1;stroke-width:0.264583"
       aria-label="n" />
    <path
       d="m 97.156332,137.34367 v -28.1016 h 2.584056 v 7.69833 l -0.269173,-0.86135 q 1.184355,-3.39158 3.983755,-5.22195 2.79939,-1.83037 6.99848,-1.83037 v 2.63789 q -0.1615,0 -0.323,0 -0.16151,-0.0538 -0.32301,-0.0538 -4.6836,0 -7.32149,2.9609 -2.637893,2.90706 -2.637893,8.12901 v 14.64298 z"
       id="text6"
       style="font-weight:300;font-size:53.8345px;line-height:1.25;font-family:Montserrat;-inkscape-font-specification:'Montserrat, Light';fill:#b7b7b7;fill-opacity:1;stroke-width:0.264583"
       aria-label="r" />
    <path
       d="m 124.25503,141.54961 q -4.18677,0 -6.43185,-2.30576 -2.1844,-2.30575 -2.1844,-6.31049 v -30.21754 h 3.03389 v 29.91415 q 0,3.03389 1.51695,4.6722 1.51694,1.6383 4.3688,1.6383 2.97321,0 4.9149,-1.75966 l 1.27424,2.12372 q -1.21356,1.15288 -2.97322,1.69898 -1.69898,0.5461 -3.51931,0.5461 z m -14.44132,-29.30738 v -2.60914 h 18.93148 v 2.60914 z"
       id="text7"
       style="font-weight:300;font-size:60.6778px;line-height:1.25;font-family:Montserrat;-inkscape-font-specification:'Montserrat, Light';fill:#b7b7b7;fill-opacity:1;stroke-width:0.294755"
       transform="scale(1.0055607,0.99447005)"
       aria-label="t" />
  </g>
</svg>
